[img]http://img132.imageshack.us/img132/1273/ibrg.jpg[/img]

screens 
[img]http://stpicz.com/5854_vlcsnap2013012000h32m53s104_k22z.jpg[/img]
[img]http://stpicz.com/4456_vlcsnap2013012000h33m08s2_cwte.jpg[/img]

[img]http://stpicz.com/8055_vlcsnap2013012000h33m21s133_kfff.jpg[/img]

General
Complete name                    : Garry Sandhu - Hang [2013] [Full Song] - Latest Punjabi Songs.MP4
Format                           : MPEG-4
Format profile                   : Base Media / Version 2
Codec ID                         : mp42
File size                        : 61.2 MiB
Duration                         : 3mn 27s
Overall bit rate                 : 2 469 Kbps
Encoded date                     : UTC 2013-01-14 08:57:42
Tagged date                      : UTC 2013-01-14 08:57:42
gsst                             : 0
gstd                             : 208213
gssd                             : BB64FFB84HH1358589006805662
gshh                             :

Video
ID                               : 1
Format                           : AVC
Format/Info                      : Advanced Video Codec
Format profile                   : High@L3.1
Format settings, CABAC           : Yes
Format settings, ReFrames        : 1 frame
Codec ID                         : avc1
Codec ID/Info                    : Advanced Video Coding
Duration                         : 3mn 27s
Bit rate mode                    : Variable
Bit rate                         : 2 274 Kbps
Maximum bit rate                 : 4 535 Kbps
Width                            : 1 280 pixels
Height                           : 720 pixels
Display aspect ratio             : 16:9
Frame rate mode                  : Constant
Frame rate                       : 25.000 fps
Color space                      : YUV
Chroma subsampling               : 4:2:0
Bit depth                        : 8 bits
Scan type                        : Progressive
Bits/(Pixel*Frame)               : 0.099
Stream size                      : 56.4 MiB (92%)
Tagged date                      : UTC 2013-01-14 08:57:42

Audio
ID                               : 2
Format                           : AAC
Format/Info                      : Advanced Audio Codec
Format profile                   : LC
Codec ID                         : 40
Duration                         : 3mn 27s
Bit rate mode                    : Variable
Bit rate                         : 192 Kbps
Maximum bit rate                 : 203 Kbps
Channel(s)                       : 2 channels
Channel positions                : Front: L R
Sampling rate                    : 44.1 KHz
Compression mode                 : Lossy
Stream size                      : 4.76 MiB (8%)
Title                            : IsoMedia File Produced by Google, 5-11-2011
Encoded date                     : UTC 2013-01-14 08:57:42
Tagged date                      : UTC 2013-01-14 08:57:42



Shrivastava[/url]*ΓÇó-)ΓÇóΓÇôΓÇôΓÇôΓÇôΓÇôΓÇôΓÇôΓÇôΓÇóBoys Release Group[/url]*ΓÇó-)ΓÇóΓÇôΓÇôΓÇôΓÇôΓÇôΓÇôΓÇôΓÇôΓÇóSad Shyri}[/url]ΓÇó-)ΓÇóΓÇôΓÇôΓÇôΓÇôΓÇôΓÇôΓÇôΓÇôΓÇó[/color]